<mxfile host="app.diagrams.net" agent="Mozilla/5.0 (Windows NT 10.0; Win64; x64) AppleWebKit/537.36 (KHTML, like Gecko) Chrome/134.0.0.0 Safari/537.36" version="26.2.3">
  <diagram name="Page-1" id="5mDYHCusMRgCHXDkDL8T">
    <mxGraphModel dx="1428" dy="777" grid="1" gridSize="10" guides="1" tooltips="1" connect="1" arrows="1" fold="1" page="1" pageScale="1" pageWidth="1000" pageHeight="1169" math="0" shadow="0">
      <root>
        <mxCell id="0" />
        <mxCell id="1" parent="0" />
        <mxCell id="VKV_Vq_TLpQ3x8WOIZ8D-4" style="edgeStyle=orthogonalEdgeStyle;rounded=0;orthogonalLoop=1;jettySize=auto;html=1;exitX=0.5;exitY=1;exitDx=0;exitDy=0;" edge="1" parent="1" source="VKV_Vq_TLpQ3x8WOIZ8D-1">
          <mxGeometry relative="1" as="geometry">
            <mxPoint x="90" y="210" as="targetPoint" />
          </mxGeometry>
        </mxCell>
        <mxCell id="VKV_Vq_TLpQ3x8WOIZ8D-1" value="Debuff stack ticks every second:&lt;div&gt;, applying whatever effects it needs&lt;/div&gt;" style="rounded=0;whiteSpace=wrap;html=1;" vertex="1" parent="1">
          <mxGeometry x="30" y="30" width="170" height="60" as="geometry" />
        </mxCell>
        <mxCell id="VKV_Vq_TLpQ3x8WOIZ8D-2" value="New debuff gets added" style="rounded=0;whiteSpace=wrap;html=1;" vertex="1" parent="1">
          <mxGeometry x="400" y="30" width="120" height="60" as="geometry" />
        </mxCell>
        <mxCell id="VKV_Vq_TLpQ3x8WOIZ8D-23" value="" style="edgeStyle=orthogonalEdgeStyle;rounded=0;orthogonalLoop=1;jettySize=auto;html=1;" edge="1" parent="1" source="VKV_Vq_TLpQ3x8WOIZ8D-5" target="VKV_Vq_TLpQ3x8WOIZ8D-22">
          <mxGeometry relative="1" as="geometry" />
        </mxCell>
        <mxCell id="VKV_Vq_TLpQ3x8WOIZ8D-5" value="Check if any have expired" style="rounded=0;whiteSpace=wrap;html=1;" vertex="1" parent="1">
          <mxGeometry x="30" y="210" width="120" height="60" as="geometry" />
        </mxCell>
        <mxCell id="VKV_Vq_TLpQ3x8WOIZ8D-6" style="edgeStyle=orthogonalEdgeStyle;rounded=0;orthogonalLoop=1;jettySize=auto;html=1;exitX=0.5;exitY=1;exitDx=0;exitDy=0;" edge="1" parent="1">
          <mxGeometry relative="1" as="geometry">
            <mxPoint x="89.5" y="390" as="targetPoint" />
            <mxPoint x="89.5" y="270" as="sourcePoint" />
          </mxGeometry>
        </mxCell>
        <mxCell id="VKV_Vq_TLpQ3x8WOIZ8D-7" value="Remove any that have" style="rounded=0;whiteSpace=wrap;html=1;" vertex="1" parent="1">
          <mxGeometry x="30" y="390" width="120" height="60" as="geometry" />
        </mxCell>
        <mxCell id="VKV_Vq_TLpQ3x8WOIZ8D-9" style="edgeStyle=orthogonalEdgeStyle;rounded=0;orthogonalLoop=1;jettySize=auto;html=1;exitX=0.5;exitY=1;exitDx=0;exitDy=0;" edge="1" parent="1">
          <mxGeometry relative="1" as="geometry">
            <mxPoint x="470" y="170" as="targetPoint" />
            <mxPoint x="480" y="90" as="sourcePoint" />
          </mxGeometry>
        </mxCell>
        <mxCell id="VKV_Vq_TLpQ3x8WOIZ8D-18" value="" style="edgeStyle=orthogonalEdgeStyle;rounded=0;orthogonalLoop=1;jettySize=auto;html=1;" edge="1" parent="1" source="VKV_Vq_TLpQ3x8WOIZ8D-14" target="VKV_Vq_TLpQ3x8WOIZ8D-2">
          <mxGeometry relative="1" as="geometry" />
        </mxCell>
        <mxCell id="VKV_Vq_TLpQ3x8WOIZ8D-14" value="Already in queue?" style="rounded=0;whiteSpace=wrap;html=1;" vertex="1" parent="1">
          <mxGeometry x="410" y="170" width="120" height="60" as="geometry" />
        </mxCell>
        <mxCell id="VKV_Vq_TLpQ3x8WOIZ8D-15" value="Add it onto the stack" style="rounded=0;whiteSpace=wrap;html=1;" vertex="1" parent="1">
          <mxGeometry x="360" y="290" width="120" height="60" as="geometry" />
        </mxCell>
        <mxCell id="VKV_Vq_TLpQ3x8WOIZ8D-17" value="Refresh existing debuff" style="rounded=0;whiteSpace=wrap;html=1;" vertex="1" parent="1">
          <mxGeometry x="510" y="290" width="120" height="60" as="geometry" />
        </mxCell>
        <mxCell id="VKV_Vq_TLpQ3x8WOIZ8D-19" style="edgeStyle=orthogonalEdgeStyle;rounded=0;orthogonalLoop=1;jettySize=auto;html=1;exitX=1;exitY=1;exitDx=0;exitDy=0;entryX=0.367;entryY=-0.017;entryDx=0;entryDy=0;entryPerimeter=0;" edge="1" parent="1" source="VKV_Vq_TLpQ3x8WOIZ8D-14" target="VKV_Vq_TLpQ3x8WOIZ8D-17">
          <mxGeometry relative="1" as="geometry" />
        </mxCell>
        <mxCell id="VKV_Vq_TLpQ3x8WOIZ8D-20" style="edgeStyle=orthogonalEdgeStyle;rounded=0;orthogonalLoop=1;jettySize=auto;html=1;exitX=0;exitY=1;exitDx=0;exitDy=0;entryX=0.358;entryY=0.05;entryDx=0;entryDy=0;entryPerimeter=0;" edge="1" parent="1" source="VKV_Vq_TLpQ3x8WOIZ8D-14" target="VKV_Vq_TLpQ3x8WOIZ8D-15">
          <mxGeometry relative="1" as="geometry" />
        </mxCell>
        <mxCell id="VKV_Vq_TLpQ3x8WOIZ8D-22" value="Decrement its current duration" style="rounded=0;whiteSpace=wrap;html=1;" vertex="1" parent="1">
          <mxGeometry x="190" y="350" width="120" height="60" as="geometry" />
        </mxCell>
        <mxCell id="VKV_Vq_TLpQ3x8WOIZ8D-24" value="No&lt;div&gt;&lt;br&gt;&lt;/div&gt;" style="text;html=1;align=center;verticalAlign=middle;resizable=0;points=[];autosize=1;strokeColor=none;fillColor=none;" vertex="1" parent="1">
          <mxGeometry x="200" y="270" width="40" height="40" as="geometry" />
        </mxCell>
        <mxCell id="VKV_Vq_TLpQ3x8WOIZ8D-25" value="No&lt;div&gt;&lt;br&gt;&lt;/div&gt;" style="text;html=1;align=center;verticalAlign=middle;resizable=0;points=[];autosize=1;strokeColor=none;fillColor=none;" vertex="1" parent="1">
          <mxGeometry x="360" y="230" width="40" height="40" as="geometry" />
        </mxCell>
        <mxCell id="VKV_Vq_TLpQ3x8WOIZ8D-26" value="&lt;div&gt;Yes&lt;/div&gt;" style="text;html=1;align=center;verticalAlign=middle;resizable=0;points=[];autosize=1;strokeColor=none;fillColor=none;" vertex="1" parent="1">
          <mxGeometry x="550" y="235" width="40" height="30" as="geometry" />
        </mxCell>
        <mxCell id="VKV_Vq_TLpQ3x8WOIZ8D-27" value="&lt;div&gt;Yes&lt;/div&gt;" style="text;html=1;align=center;verticalAlign=middle;resizable=0;points=[];autosize=1;strokeColor=none;fillColor=none;" vertex="1" parent="1">
          <mxGeometry x="20" y="305" width="40" height="30" as="geometry" />
        </mxCell>
      </root>
    </mxGraphModel>
  </diagram>
</mxfile>
